<?xml version="1.0" encoding="UTF-8" standalone="no"?>
<!-- Created with Inkscape (http://www.inkscape.org/) -->

<svg
   width="210mm"
   height="297mm"
   viewBox="0 0 210 297"
   version="1.1"
   id="svg5"
   inkscape:version="1.1.2 (0a00cf5339, 2022-02-04)"
   sodipodi:docname="logo.svg"
   xmlns:inkscape="http://www.inkscape.org/namespaces/inkscape"
   xmlns:sodipodi="http://sodipodi.sourceforge.net/DTD/sodipodi-0.dtd"
   xmlns:xlink="http://www.w3.org/1999/xlink"
   xmlns="http://www.w3.org/2000/svg"
   xmlns:svg="http://www.w3.org/2000/svg">
  <sodipodi:namedview
     id="namedview7"
     pagecolor="#ffffff"
     bordercolor="#666666"
     borderopacity="1.0"
     inkscape:pageshadow="2"
     inkscape:pageopacity="0.0"
     inkscape:pagecheckerboard="0"
     inkscape:document-units="mm"
     showgrid="false"
     gridtolerance="10"
     inkscape:zoom="2.786588"
     inkscape:cx="69.080897"
     inkscape:cy="74.822686"
     inkscape:window-width="1920"
     inkscape:window-height="1016"
     inkscape:window-x="0"
     inkscape:window-y="0"
     inkscape:window-maximized="1"
     inkscape:current-layer="layer1">
    <inkscape:grid
       type="xygrid"
       id="grid59" />
  </sodipodi:namedview>
  <defs
     id="defs2">
    <linearGradient
       inkscape:collect="always"
       id="linearGradient11357">
      <stop
         style="stop-color:#000080;stop-opacity:1"
         offset="0"
         id="stop11355" />
      <stop
         style="stop-color:#009e21;stop-opacity:1"
         offset="1"
         id="stop11353" />
    </linearGradient>
    <linearGradient
       id="linearGradient11331"
       inkscape:swatch="solid">
      <stop
         style="stop-color:#000080;stop-opacity:1;"
         offset="0"
         id="stop11329" />
    </linearGradient>
    <linearGradient
       inkscape:collect="always"
       xlink:href="#linearGradient11357"
       id="linearGradient11359"
       x1="69.655167"
       y1="72.98652"
       x2="104.74591"
       y2="72.98652"
       gradientUnits="userSpaceOnUse"
       gradientTransform="translate(-44.967473,-40.64275)" />
    <mask
       maskUnits="userSpaceOnUse"
       id="mask1035-3">
      <rect
         style="fill:#008000;stroke-width:0.264983"
         id="rect1037-6"
         height="11.988095"
         x="59.108318"
         y="-33.836811"
         transform="matrix(0.86536852,0.50113603,-0.49886483,0.8666798,0,0)"
         width="1.603" />
    </mask>
    <clipPath
       clipPathUnits="userSpaceOnUse"
       id="clipPath1349">
      <rect
         style="fill:#008000;stroke-width:0.230923"
         id="rect1351"
         height="10.447171"
         x="59.118462"
         y="-32.309414"
         transform="matrix(0.86536852,0.50113603,-0.49886483,0.8666798,0,0)"
         width="1.3969538" />
    </clipPath>
    <linearGradient
       inkscape:collect="always"
       xlink:href="#linearGradient11357"
       id="linearGradient88206"
       x1="10.103516"
       y1="58.491207"
       x2="305.89062"
       y2="58.491207"
       gradientUnits="userSpaceOnUse"
       gradientTransform="scale(0.26458333)" />
  </defs>
  <g
     inkscape:label="Layer 1"
     inkscape:groupmode="layer"
     id="layer1">
    <g
       id="g117939"
       inkscape:export-filename="/home/elliott/github/MAPseq/docs/logo.png"
       inkscape:export-xdpi="500"
       inkscape:export-ydpi="500">
      <path
         id="rect8212"
         style="fill:url(#linearGradient88206);fill-opacity:1;stroke-width:0.256153"
         d="m 17.240291,0.26251627 -1.300179,0.80046793 5.41259,10.0024898 v 0.238229 0.683162 l -0.258899,0.4408 C 16.848657,19.654188 11.849987,23.855833 6.1091878,25.022762 5.1795674,25.211726 4.4022904,25.300313 3.0974852,25.365893 l -0.4242633,0.02119 0.0093,0.305925 0.00982,0.306441 9.3301801,0.0088 9.33018,0.0088 v 2.335777 2.335773 h 0.746208 0.746724 V 28.352826 26.017049 H 41.804681 60.76373 v 2.335777 2.336289 h 0.762749 0.763259 v -2.336289 -2.335777 h 9.321909 9.321911 V 25.70389 25.391248 l -0.788064,-0.02274 c -3.161803,-0.09083 -5.864516,-0.921695 -8.517311,-2.618444 -3.295938,-2.10811 -6.250606,-5.425149 -8.951391,-10.048999 l -0.387056,-0.66249 V 11.329024 11.051522 L 67.685274,1.0805542 66.385611,0.28008627 60.780268,10.638627 l -0.01654,0.520898 -0.01654,0.521416 -0.298688,0.362251 c -1.196803,1.452659 -2.867597,3.237632 -4.149619,4.433322 -2.167446,2.021473 -4.136038,3.459556 -6.300391,4.602819 -2.229964,1.177915 -4.260032,1.830314 -6.518465,2.094446 -0.756463,0.08847 -2.576309,0.08877 -3.317627,5.29e-4 -3.707413,-0.441346 -7.128224,-1.999744 -10.75128,-4.897375 -2.034354,-1.627027 -4.296659,-3.893523 -6.261117,-6.273519 l -0.304374,-0.36897 v -0.506945 -0.506946 z m -1.622123,0.99890543 -1.300179,0.8004679 5.053438,9.3379314 1.299662,-0.800468 z m 52.389566,0.01757 -5.053438,9.3379313 1.299663,0.800985 5.053438,-9.3379316 z M 60.752362,12.178068 c 0.0063,0 0.01138,2.970139 0.01138,6.60063 v 6.601148 H 60.083678 59.403617 V 19.54661 13.713891 l 0.118856,-0.121956 c 0.06555,-0.06708 0.366773,-0.412649 0.669208,-0.767912 0.302437,-0.355263 0.555091,-0.645955 0.560689,-0.645955 z m -37.739297,0.159163 0.305925,0.35295 c 0.168278,0.194081 0.474032,0.544583 0.679028,0.778764 l 0.372587,0.425814 5.29e-4,5.742285 5.29e-4,5.742802 H 23.691602 23.01154 l 5.29e-4,-6.521566 z m -1.6769,0.303858 0.0083,6.325195 c 0.0047,3.478856 0.0015,6.34479 -0.0072,6.36912 -0.01189,0.03336 -0.178967,0.04444 -0.680062,0.04444 h -0.66456 V 20.08611 14.79186 l 0.671793,-1.075387 z m 41.13134,0.318327 c 0.0067,0.0081 0.165481,0.269896 0.352433,0.581359 0.186952,0.311463 0.48727,0.792872 0.667658,1.070219 l 0.328146,0.504362 -0.0083,5.123202 -0.0083,5.123718 -0.671793,0.0093 -0.671795,0.0098 V 19.16315 c 0,-3.420009 0.0053,-6.211855 0.01188,-6.203755 z m -3.196706,0.935343 -0.0083,5.734017 -0.0083,5.7335 -0.665591,0.0093 c -0.366069,0.0052 -0.67577,-0.0011 -0.688329,-0.01447 -0.01256,-0.01337 -0.02274,-2.263898 -0.02274,-5.000729 v -4.975924 l 0.696598,-0.74259 z m -34.733279,0.17725 0.680062,0.72502 0.680062,0.725021 v 4.928898 4.928898 H 25.217582 24.53752 v -5.653918 z m -4.739246,0.992188 c 0.0159,-0.01876 0.02842,2.253749 0.02842,5.141288 v 5.174361 H 19.146632 18.46657 v -4.238501 -4.238501 l 0.253214,-0.335897 c 0.139161,-0.184932 0.432514,-0.591323 0.65164,-0.902787 0.219127,-0.311463 0.411167,-0.581474 0.426847,-0.599963 z m 44.14976,0.256831 0.420129,0.596346 c 0.230913,0.328003 0.536938,0.750861 0.680061,0.939478 l 0.259932,0.342615 v 4.090189 4.09019 h -0.657838 c -0.361882,0 -0.667883,-0.01079 -0.680064,-0.02377 -0.01222,-0.01298 -0.02222,-2.275955 -0.02222,-5.029151 z m -6.230112,0.219109 c 0.01471,0 0.02687,2.214277 0.02687,4.920113 v 4.919596 h -0.680064 -0.680061 v -4.274675 -4.274674 l 0.538985,-0.518315 c 0.296495,-0.285112 0.590301,-0.575211 0.65319,-0.644921 0.06291,-0.06971 0.126458,-0.127124 0.141076,-0.127124 z M 26.057324,15.68173 c 0.01506,0 0.06377,0.04165 0.108004,0.0925 0.04423,0.05085 0.345271,0.347317 0.669211,0.658874 l 0.58911,0.566891 -0.0083,4.18114 -0.0083,4.18114 -0.665593,0.0093 c -0.366068,0.0052 -0.6758,-0.0011 -0.68833,-0.01447 -0.03281,-0.03499 -0.02868,-9.675379 0.0041,-9.675379 z m 30.161466,1.304313 v 4.19716 4.196643 H 55.538729 54.858665 V 21.774898 18.16995 l 0.455787,-0.391191 c 0.250886,-0.215275 0.556903,-0.481881 0.680062,-0.592211 z m -37.946521,0.166398 c 0.01605,-0.01887 0.02842,1.779307 0.02842,4.096908 v 4.130497 H 17.62063 16.940568 v -3.321244 -3.321245 l 0.290421,-0.333313 c 0.159777,-0.183187 0.453119,-0.532333 0.65164,-0.775663 0.198522,-0.243331 0.3739,-0.45745 0.38964,-0.47594 z m 9.325529,0.0036 c 0.02281,0.01485 0.213376,0.179009 0.423746,0.364836 0.210373,0.185828 0.497568,0.433555 0.638204,0.550354 l 0.255799,0.211873 5.3e-4,3.548621 5.29e-4,3.548103 h -0.680064 -0.680061 v -4.125329 c 0,-3.291156 0.0083,-4.119997 0.04134,-4.098457 z m 37.876242,0.258899 0.295071,0.366903 c 0.162282,0.201696 0.46831,0.567175 0.680061,0.812353 l 0.38499,0.445451 v 3.170349 3.169832 H 66.154101 65.47404 v -3.982702 z m -10.781255,0.886768 v 3.539318 3.538802 h -0.657842 c -0.361865,0 -0.667872,-0.01079 -0.680061,-0.02377 -0.01222,-0.01298 -0.02223,-1.365251 -0.02223,-3.005501 V 19.36781 l 0.406175,-0.309025 c 0.223507,-0.170129 0.529535,-0.410252 0.680061,-0.533301 z m -25.587584,0.141076 c 0.01252,0 0.05328,0.03001 0.09095,0.06666 0.08509,0.08278 1.017175,0.795239 1.149284,0.878499 l 0.09715,0.06098 v 2.965194 2.96571 h -0.680061 -0.680061 v -3.468521 c 0,-1.907712 0.01024,-3.468522 0.02273,-3.468522 z m -12.296925,0.445451 -0.0088,3.237012 -0.0083,3.237011 -0.665593,0.0093 c -0.36607,0.0052 -0.6758,-0.0011 -0.68833,-0.01447 -0.01253,-0.01337 -0.02274,-1.154915 -0.02274,-2.536796 V 20.307784 L 15.687881,20.0401 c 0.150527,-0.146991 0.464384,-0.46618 0.697115,-0.709517 z m 50.191769,0.324012 0.543118,0.56534 c 0.298548,0.310851 0.604512,0.617915 0.680061,0.682646 l 0.136943,0.117822 v 2.400887 2.400887 h -0.680061 -0.680061 v -3.083533 z m -13.816211,0.260966 0.0083,2.908866 c 0.0045,1.599984 5.29e-4,2.928978 -0.0078,2.953308 -0.01267,0.03317 -0.179726,0.04444 -0.679545,0.04444 H 51.84023 v -2.494938 -2.495455 l 0.201538,-0.132809 c 0.110919,-0.07306 0.413242,-0.279436 0.671793,-0.45837 z m -22.556763,0.137459 c 0.01048,0 0.201075,0.124582 0.42323,0.276986 0.222152,0.152404 0.519412,0.353464 0.660942,0.446484 l 0.257347,0.168982 -0.0083,2.429309 -0.0088,2.429826 -0.671793,0.0093 -0.671795,0.0098 v -2.885612 c 0,-1.586918 0.0087,-2.885095 0.01913,-2.885095 z M 15.266252,20.46025 c 0.0086,0 0.0155,1.10688 0.0155,2.459798 v 2.459798 h -0.68006 -0.680062 v -1.889291 -1.88929 l 0.256315,-0.206189 c 0.141056,-0.11327 0.440184,-0.369957 0.664559,-0.570508 0.224375,-0.200552 0.415146,-0.364318 0.423748,-0.364318 z m 36.407595,0.03566 v 2.442228 2.441712 h -0.680062 -0.680061 v -2.043803 -2.04432 l 0.47284,-0.273368 c 0.259977,-0.15044 0.566031,-0.329539 0.680061,-0.397908 z m -19.558495,0.105937 c 0.0078,0 0.242821,0.1337 0.522449,0.297139 0.279625,0.163439 0.578922,0.333432 0.665591,0.378272 l 0.157615,0.08165 v 2.01073 l 5.29e-4,2.010213 h -0.658357 c -0.361876,0 -0.667893,-0.01079 -0.680061,-0.02377 -0.02373,-0.02527 -0.03139,-4.754232 -0.0078,-4.754232 z m 36.395194,0.141594 c 0.0096,0 0.147807,0.117031 0.306959,0.260449 0.15916,0.143417 0.460936,0.403734 0.670758,0.578259 l 0.381373,0.317293 v 1.731161 l 5.3e-4,1.731677 -0.665591,0.0093 c -0.36607,0.0052 -0.67577,-0.0011 -0.688333,-0.01447 -0.0266,-0.0281 -0.03202,-4.613672 -0.0057,-4.613672 z m -18.402493,0.665075 c 0.03753,0.02519 0.03979,0.312681 0.03979,1.970422 V 25.37985 H 49.46778 48.787719 v -1.678967 -1.678968 l 0.07441,-0.02429 c 0.07016,-0.02287 1.101981,-0.516135 1.227833,-0.587045 0.0069,-0.0039 0.01273,-0.0057 0.0181,-0.0021 z m -16.481165,0.04496 0.323495,0.160714 c 0.177895,0.0884 0.483918,0.233361 0.680061,0.322461 l 0.356569,0.162264 v 1.64021 1.640727 h -0.680064 -0.680061 v -1.963188 z m -19.871139,0.284221 v 1.821078 1.821077 h -0.680061 -0.680062 l 0.0016,-1.336353 0.0016,-1.335835 0.288871,-0.193787 c 0.158757,-0.106525 0.464124,-0.324569 0.678511,-0.484725 z M 70.04482,22.03018 c 0.01423,0.0094 0.228899,0.165707 0.476972,0.347265 0.248076,0.181559 0.542499,0.389951 0.654225,0.463021 l 0.203089,0.132808 v 1.203028 1.203544 h -0.680064 -0.680061 v -1.683102 c 0,-0.925805 0.01159,-1.675965 0.02585,-1.666564 z m -21.416264,0.09353 c 0.01492,0 0.02339,0.728433 0.0186,1.619022 l -0.0088,1.61954 -0.672311,0.0093 c -0.520912,0.0074 -0.676286,-7.15e-4 -0.688846,-0.03566 -0.0089,-0.02481 -0.01254,-0.64134 -0.0078,-1.370459 l 0.0088,-1.325501 0.116274,-0.04444 c 0.06386,-0.02442 0.361471,-0.140872 0.661458,-0.258382 0.299987,-0.117516 0.557633,-0.213424 0.572574,-0.213424 z m -13.475663,0.04031 0.207738,0.09043 c 0.114038,0.04988 0.416353,0.166873 0.671795,0.259933 l 0.464053,0.169498 0.0088,1.347722 0.0088,1.348238 H 35.833468 35.15289 V 23.77167 Z m 11.933121,0.535885 c 0.03445,-0.01409 0.04289,0.245128 0.04289,1.331185 v 1.348755 h -0.680062 -0.680061 v -1.146183 -1.145667 l 0.223758,-0.05943 c 0.232122,-0.06158 1.018374,-0.297912 1.093473,-0.328662 z m -10.398847,0.06201 c 0.02281,6.08e-4 0.333052,0.08485 0.688845,0.187068 l 0.646473,0.185519 v 1.113627 1.114144 l -0.665592,0.0093 c -0.366072,0.0052 -0.675801,-0.0011 -0.688332,-0.01447 -0.01254,-0.01337 -0.02273,-0.603234 -0.02273,-1.310515 0,-1.005773 0.0089,-1.28555 0.04134,-1.284676 z m -24.457423,0.06149 v 1.277958 1.278475 h -0.664558 c -0.506789,0 -0.668239,-0.01066 -0.680579,-0.04496 -0.0089,-0.02474 -0.01213,-0.418734 -0.0072,-0.875399 l 0.0088,-0.83044 0.29869,-0.171049 c 0.324083,-0.185619 0.850866,-0.502483 0.970483,-0.583943 z m 59.315242,0.250114 0.108003,0.06976 c 0.185669,0.120404 0.697616,0.417556 0.980818,0.569474 l 0.271304,0.145728 v 0.760677 0.760677 H 72.225047 71.544986 V 24.226428 Z M 45.6029,23.120552 v 1.129647 1.129647 h -0.680061 -0.680061 v -0.989604 -0.989087 l 0.108003,-0.02015 c 0.477094,-0.08779 1.055206,-0.203694 1.144116,-0.229444 z m -7.431071,0.04083 0.390157,0.08113 c 0.214389,0.04455 0.520411,0.100907 0.680064,0.125057 l 0.289904,0.04393 v 0.983919 0.984436 H 38.851892 38.171829 V 24.27087 Z m 5.905066,0.263549 v 0.977202 0.977718 h -0.66456 c -0.506285,0 -0.668266,-0.01074 -0.680577,-0.04496 -0.0088,-0.0247 -0.01214,-0.434618 -0.0072,-0.911055 l 0.0088,-0.866614 0.448035,-0.03927 c 0.246317,-0.02185 0.548635,-0.05205 0.671793,-0.06666 z m -4.379061,5.3e-4 0.07493,0.01964 c 0.04105,0.01073 0.29837,0.03745 0.572058,0.05943 0.273682,0.02198 0.546346,0.04764 0.605647,0.05684 l 0.107487,0.01654 v 0.900721 0.901237 H 40.377898 39.697834 V 24.402657 Z M 41.22384,23.5748 h 0.680579 0.681093 l -0.0093,0.893486 -0.0088,0.894002 -0.671796,0.0093 -0.671793,0.0098 V 24.47807 Z m -30.527852,0.15295 c 0.03347,-0.01569 0.04017,0.14961 0.03307,0.807186 l -0.0088,0.82734 -0.671794,0.0093 -0.6717937,0.0098 V 24.8667 c 0,-0.50011 0.00241,-0.515844 0.074931,-0.548804 0.041054,-0.01866 0.3280256,-0.154811 0.6382037,-0.302307 0.310179,-0.147496 0.583015,-0.276988 0.606165,-0.287837 z m 62.403425,0.236162 c 0.01569,0 0.146444,0.05841 0.290423,0.129707 0.143967,0.0713 0.433538,0.203966 0.643371,0.294556 l 0.38137,0.164331 v 0.405143 0.404627 l -0.671792,0.0093 -0.671793,0.0098 v -0.709001 c 0,-0.389733 0.01278,-0.708484 0.02842,-0.708484 z M 9.169466,24.435718 c 0.031936,-0.01335 0.041341,0.09328 0.041341,0.463537 v 0.480591 H 8.5307455 7.8506835 l 0.00156,-0.238745 0.00103,-0.239262 0.6371704,-0.224276 C 8.8410022,24.554072 9.1466711,24.445217 9.169475,24.435718 Z m 65.394458,0.173632 0.538986,0.187069 c 0.296492,0.102859 0.602551,0.205206 0.680061,0.227376 0.139089,0.03978 0.141076,0.04207 0.141076,0.197921 v 0.15813 h -0.657842 c -0.361878,0 -0.66788,-0.01079 -0.680061,-0.02377 -0.01222,-0.01298 -0.02223,-0.186093 -0.02223,-0.38499 z M 7.6574136,24.965401 c 0.023556,0.0062 0.027389,0.05488 0.027389,0.198437 v 0.216008 h -0.680062 c -0.4224589,0 -0.6800617,-0.01305 -0.6800617,-0.03462 0,-0.01909 0.033877,-0.04248 0.074931,-0.05168 0.2053659,-0.04624 1.1768042,-0.301054 1.2273153,-0.321944 0.012851,-0.0053 0.022638,-0.0083 0.030489,-0.0062 z m 68.4325134,0.141077 0.406694,0.102319 c 0.223507,0.05608 0.451173,0.115788 0.505912,0.132808 0.06834,0.02124 -0.05929,0.03212 -0.406693,0.03462 l -0.505913,0.0036 V 25.24342 Z" />
      <text
         xml:space="preserve"
         style="font-style:normal;font-weight:normal;font-size:9.87778px;line-height:1.25;font-family:sans-serif;fill:url(#linearGradient11359);fill-opacity:1;stroke:none;stroke-width:0.265;stroke-miterlimit:4;stroke-dasharray:none"
         x="23.783875"
         y="35.035461"
         id="text6213"><tspan
           sodipodi:role="line"
           id="tspan6211"
           style="font-style:normal;font-variant:normal;font-weight:300;font-stretch:normal;font-size:9.87778px;font-family:Lato;-inkscape-font-specification:'Lato Light';fill:url(#linearGradient11359);fill-opacity:1;stroke-width:0.265;stroke-miterlimit:4;stroke-dasharray:none"
           x="23.783875"
           y="35.035461">MAPseq</tspan></text>
    </g>
  </g>
</svg>
