<?xml version="1.0" encoding="UTF-8" standalone="no"?>
<!DOCTYPE svg PUBLIC "-//W3C//DTD SVG 1.1//EN"
 "http://www.w3.org/Graphics/SVG/1.1/DTD/svg11.dtd">
<!-- Generated by graphviz version 2.40.1 (20161225.0304)
 -->
<!-- Title: mapseq_aggr Pages: 1 -->
<svg width="580pt" height="426pt"
 viewBox="0.00 0.00 579.59 426.40" xmlns="http://www.w3.org/2000/svg" xmlns:xlink="http://www.w3.org/1999/xlink">
<g id="graph0" class="graph" transform="scale(1 1) rotate(0) translate(4 422.4)">
<title>mapseq_aggr</title>
<!-- start_aggr -->
<g id="node1" class="node">
<title>start_aggr</title>
<polygon fill="#98fb98" stroke="#000000" stroke-width="2" points="361.9338,-418.2019 204.7632,-418.2019 204.7632,-376.9981 361.9338,-376.9981 361.9338,-418.2019"/>
<text text-anchor="middle" x="283.3485" y="-401.8" font-family="Helvetica,sans-Serif" font-size="14.00" fill="#000000">Start Aggregation</text>
<text text-anchor="middle" x="283.3485" y="-385" font-family="Helvetica,sans-Serif" font-size="14.00" fill="#000000">(run_mapseq_aggr.sh)</text>
</g>
<!-- aggr_config -->
<g id="node2" class="node">
<title>aggr_config</title>
<polygon fill="#87cefa" stroke="#000000" stroke-width="2" points="368.3891,-340.8 198.3079,-340.8 198.3079,-304.8 368.3891,-304.8 368.3891,-340.8"/>
<text text-anchor="middle" x="283.3485" y="-318.6" font-family="Helvetica,sans-Serif" font-size="14.00" fill="#000000">Source project_config.txt</text>
</g>
<!-- start_aggr&#45;&gt;aggr_config -->
<g id="edge1" class="edge">
<title>start_aggr&#45;&gt;aggr_config</title>
<path fill="none" stroke="#2f4f4f" stroke-width="1.5" d="M283.3485,-376.764C283.3485,-376.764 283.3485,-350.9816 283.3485,-350.9816"/>
<polygon fill="#2f4f4f" stroke="#2f4f4f" stroke-width="1.5" points="283.3485,-340.9816 287.8486,-350.9815 283.5985,-345.9816 283.5986,-350.9816 283.3486,-350.9816 283.0986,-350.9816 283.0985,-345.9816 278.8486,-350.9816 283.3485,-340.9816 283.3485,-340.9816"/>
</g>
<!-- aggr_rna -->
<g id="node3" class="node">
<title>aggr_rna</title>
<polygon fill="#87cefa" stroke="#000000" stroke-width="2" points="272.5457,-268.6019 .1513,-268.6019 .1513,-227.3981 272.5457,-227.3981 272.5457,-268.6019"/>
<text text-anchor="middle" x="136.3485" y="-252.2" font-family="Helvetica,sans-Serif" font-size="14.00" fill="#000000">Run Cell Ranger RNA Aggr (background)</text>
<text text-anchor="middle" x="136.3485" y="-235.4" font-family="Helvetica,sans-Serif" font-size="14.00" fill="#000000">(run_cellranger.aggr_rna.sh)</text>
</g>
<!-- aggr_config&#45;&gt;aggr_rna -->
<g id="edge2" class="edge">
<title>aggr_config&#45;&gt;aggr_rna</title>
<path fill="none" stroke="#2f4f4f" stroke-width="1.5" d="M235.5126,-304.693C235.5126,-304.693 235.5126,-278.8515 235.5126,-278.8515"/>
<polygon fill="#2f4f4f" stroke="#2f4f4f" stroke-width="1.5" points="235.5126,-268.8515 240.0127,-278.8515 235.7626,-273.8515 235.7627,-278.8515 235.5127,-278.8515 235.2627,-278.8515 235.2626,-273.8515 231.0127,-278.8515 235.5126,-268.8515 235.5126,-268.8515"/>
</g>
<!-- aggr_atac -->
<g id="node4" class="node">
<title>aggr_atac</title>
<polygon fill="#87cefa" stroke="#000000" stroke-width="2" points="571.8285,-268.6019 290.8685,-268.6019 290.8685,-227.3981 571.8285,-227.3981 571.8285,-268.6019"/>
<text text-anchor="middle" x="431.3485" y="-252.2" font-family="Helvetica,sans-Serif" font-size="14.00" fill="#000000">Run Cell Ranger ATAC Aggr (background)</text>
<text text-anchor="middle" x="431.3485" y="-235.4" font-family="Helvetica,sans-Serif" font-size="14.00" fill="#000000">(run_cellranger.aggr_atac.sh)</text>
</g>
<!-- aggr_config&#45;&gt;aggr_atac -->
<g id="edge3" class="edge">
<title>aggr_config&#45;&gt;aggr_atac</title>
<path fill="none" stroke="#2f4f4f" stroke-width="1.5" d="M329.7388,-304.693C329.7388,-304.693 329.7388,-278.8515 329.7388,-278.8515"/>
<polygon fill="#2f4f4f" stroke="#2f4f4f" stroke-width="1.5" points="329.7388,-268.8515 334.2388,-278.8515 329.9888,-273.8515 329.9888,-278.8515 329.7388,-278.8515 329.4888,-278.8515 329.4888,-273.8515 325.2388,-278.8515 329.7388,-268.8515 329.7388,-268.8515"/>
</g>
<!-- wait -->
<g id="node5" class="node">
<title>wait</title>
<ellipse fill="#f0e68c" stroke="#000000" stroke-width="2" cx="283.3485" cy="-173.2" rx="87.5283" ry="18"/>
<text text-anchor="middle" x="283.3485" y="-169" font-family="Helvetica,sans-Serif" font-size="14.00" fill="#000000">Wait for Aggr jobs</text>
</g>
<!-- aggr_rna&#45;&gt;wait -->
<g id="edge4" class="edge">
<title>aggr_rna&#45;&gt;wait</title>
<path fill="none" stroke="#2f4f4f" stroke-width="1.5" stroke-dasharray="5,2" d="M234.1408,-227.164C234.1408,-227.164 234.1408,-198.4694 234.1408,-198.4694"/>
<polygon fill="#2f4f4f" stroke="#2f4f4f" stroke-width="1.5" points="234.1408,-188.4694 238.6409,-198.4693 234.3909,-193.4694 234.3909,-198.4694 234.1409,-198.4694 233.8909,-198.4694 233.8909,-193.4694 229.6409,-198.4694 234.1408,-188.4694 234.1408,-188.4694"/>
</g>
<!-- aggr_atac&#45;&gt;wait -->
<g id="edge5" class="edge">
<title>aggr_atac&#45;&gt;wait</title>
<path fill="none" stroke="#2f4f4f" stroke-width="1.5" stroke-dasharray="5,2" d="M331.1105,-227.164C331.1105,-227.164 331.1105,-198.4694 331.1105,-198.4694"/>
<polygon fill="#2f4f4f" stroke="#2f4f4f" stroke-width="1.5" points="331.1105,-188.4694 335.6106,-198.4693 331.3606,-193.4694 331.3606,-198.4694 331.1106,-198.4694 330.8606,-198.4694 330.8606,-193.4694 326.6106,-198.4694 331.1105,-188.4694 331.1105,-188.4694"/>
</g>
<!-- demux_rna -->
<g id="node6" class="node">
<title>demux_rna</title>
<polygon fill="#87cefa" stroke="#000000" stroke-width="2" points="262.8006,-119.0019 65.8964,-119.0019 65.8964,-77.7981 262.8006,-77.7981 262.8006,-119.0019"/>
<text text-anchor="middle" x="164.3485" y="-102.6" font-family="Helvetica,sans-Serif" font-size="14.00" fill="#000000">Demultiplex RNA with Seurat</text>
<text text-anchor="middle" x="164.3485" y="-85.8" font-family="Helvetica,sans-Serif" font-size="14.00" fill="#000000">(run_seurat.demux_rna.R)</text>
</g>
<!-- wait&#45;&gt;demux_rna -->
<g id="edge6" class="edge">
<title>wait&#45;&gt;demux_rna</title>
<path fill="none" stroke="#2f4f4f" stroke-width="1.5" d="M229.0795,-158.7778C229.0795,-158.7778 229.0795,-129.2857 229.0795,-129.2857"/>
<polygon fill="#2f4f4f" stroke="#2f4f4f" stroke-width="1.5" points="229.0795,-119.2857 233.5796,-129.2856 229.3295,-124.2857 229.3296,-129.2857 229.0796,-129.2857 228.8296,-129.2857 228.8295,-124.2857 224.5796,-129.2857 229.0795,-119.2857 229.0795,-119.2857"/>
</g>
<!-- demux_atac -->
<g id="node7" class="node">
<title>demux_atac</title>
<polygon fill="#87cefa" stroke="#000000" stroke-width="2" points="526.3202,-119.0019 280.3768,-119.0019 280.3768,-77.7981 526.3202,-77.7981 526.3202,-119.0019"/>
<text text-anchor="middle" x="403.3485" y="-102.6" font-family="Helvetica,sans-Serif" font-size="14.00" fill="#000000">Demultiplex ATAC/ASAP with Seurat</text>
<text text-anchor="middle" x="403.3485" y="-85.8" font-family="Helvetica,sans-Serif" font-size="14.00" fill="#000000">(run_seurat.demux_atac.R)</text>
</g>
<!-- wait&#45;&gt;demux_atac -->
<g id="edge7" class="edge">
<title>wait&#45;&gt;demux_atac</title>
<path fill="none" stroke="#2f4f4f" stroke-width="1.5" d="M325.8626,-157.3368C325.8626,-157.3368 325.8626,-129.0746 325.8626,-129.0746"/>
<polygon fill="#2f4f4f" stroke="#2f4f4f" stroke-width="1.5" points="325.8626,-119.0746 330.3627,-129.0746 326.1127,-124.0746 326.1127,-129.0746 325.8627,-129.0746 325.6127,-129.0746 325.6127,-124.0746 321.3627,-129.0747 325.8626,-119.0746 325.8626,-119.0746"/>
</g>
<!-- end_aggr -->
<g id="node8" class="node">
<title>end_aggr</title>
<polygon fill="#ffb6c1" stroke="#000000" stroke-width="2" points="363.2419,-41.4019 203.4551,-41.4019 203.4551,-.1981 363.2419,-.1981 363.2419,-41.4019"/>
<text text-anchor="middle" x="283.3485" y="-25" font-family="Helvetica,sans-Serif" font-size="14.00" fill="#000000">End Aggregation</text>
<text text-anchor="middle" x="283.3485" y="-8.2" font-family="Helvetica,sans-Serif" font-size="14.00" fill="#000000">(RDS Objects Created)</text>
</g>
<!-- demux_rna&#45;&gt;end_aggr -->
<g id="edge8" class="edge">
<title>demux_rna&#45;&gt;end_aggr</title>
<path fill="none" stroke="#2f4f4f" stroke-width="1.5" stroke-dasharray="5,2" d="M232.9881,-77.6046C232.9881,-77.6046 232.9881,-51.6528 232.9881,-51.6528"/>
<polygon fill="#2f4f4f" stroke="#2f4f4f" stroke-width="1.5" points="232.9881,-41.6528 237.4881,-51.6527 233.2381,-46.6528 233.2381,-51.6528 232.9881,-51.6528 232.7381,-51.6528 232.7381,-46.6528 228.4881,-51.6528 232.9881,-41.6528 232.9881,-41.6528"/>
</g>
<!-- demux_atac&#45;&gt;end_aggr -->
<g id="edge9" class="edge">
<title>demux_atac&#45;&gt;end_aggr</title>
<path fill="none" stroke="#2f4f4f" stroke-width="1.5" stroke-dasharray="5,2" d="M321.9541,-77.6046C321.9541,-77.6046 321.9541,-51.6528 321.9541,-51.6528"/>
<polygon fill="#2f4f4f" stroke="#2f4f4f" stroke-width="1.5" points="321.9541,-41.6528 326.4541,-51.6527 322.2041,-46.6528 322.2041,-51.6528 321.9541,-51.6528 321.7041,-51.6528 321.7041,-46.6528 317.4541,-51.6528 321.9541,-41.6528 321.9541,-41.6528"/>
</g>
</g>
</svg>

