<?xml version="1.0" encoding="UTF-8" standalone="no"?>
<!DOCTYPE svg PUBLIC "-//W3C//DTD SVG 1.1//EN"
 "http://www.w3.org/Graphics/SVG/1.1/DTD/svg11.dtd">
<!-- Generated by graphviz version 2.40.1 (20161225.0304)
 -->
<!-- Title: mapseq_run Pages: 1 -->
<svg width="593pt" height="782pt"
 viewBox="0.00 0.00 593.29 782.00" xmlns="http://www.w3.org/2000/svg" xmlns:xlink="http://www.w3.org/1999/xlink">
<g id="graph0" class="graph" transform="scale(1 1) rotate(0) translate(4 778)">
<title>mapseq_run</title>
<!-- start_run -->
<g id="node1" class="node">
<title>start_run</title>
<polygon fill="#98fb98" stroke="#000000" stroke-width="2" points="261.6438,-773.8019 140.0558,-773.8019 140.0558,-732.5981 261.6438,-732.5981 261.6438,-773.8019"/>
<text text-anchor="middle" x="200.8498" y="-757.4" font-family="Helvetica,sans-Serif" font-size="14.00" fill="#000000">Start Single Run</text>
<text text-anchor="middle" x="200.8498" y="-740.6" font-family="Helvetica,sans-Serif" font-size="14.00" fill="#000000">(run_mapseq.sh)</text>
</g>
<!-- config -->
<g id="node2" class="node">
<title>config</title>
<polygon fill="#add8e6" stroke="#000000" stroke-width="2" points="285.8904,-695.4 115.8092,-695.4 115.8092,-659.4 285.8904,-659.4 285.8904,-695.4"/>
<text text-anchor="middle" x="200.8498" y="-673.2" font-family="Helvetica,sans-Serif" font-size="14.00" fill="#000000">Source project_config.txt</text>
</g>
<!-- start_run&#45;&gt;config -->
<g id="edge1" class="edge">
<title>start_run&#45;&gt;config</title>
<path fill="none" stroke="#696969" stroke-width="1.5" d="M200.8498,-732.4873C200.8498,-732.4873 200.8498,-705.5078 200.8498,-705.5078"/>
<polygon fill="#696969" stroke="#696969" stroke-width="1.5" points="200.8498,-695.5078 205.3499,-705.5078 201.0999,-700.5078 201.0999,-705.5078 200.8499,-705.5078 200.5999,-705.5078 200.5999,-700.5078 196.3499,-705.5079 200.8498,-695.5078 200.8498,-695.5078"/>
</g>
<!-- preflight -->
<g id="node3" class="node">
<title>preflight</title>
<polygon fill="#f0e68c" stroke="#000000" stroke-width="2" points="289.0772,-622.2019 112.6225,-622.2019 112.6225,-580.9981 289.0772,-580.9981 289.0772,-622.2019"/>
<text text-anchor="middle" x="200.8498" y="-605.8" font-family="Helvetica,sans-Serif" font-size="14.00" fill="#000000">Perform Pre&#45;flight Checks</text>
<text text-anchor="middle" x="200.8498" y="-589" font-family="Helvetica,sans-Serif" font-size="14.00" fill="#000000">(preflight_checks.sh)</text>
</g>
<!-- config&#45;&gt;preflight -->
<g id="edge2" class="edge">
<title>config&#45;&gt;preflight</title>
<path fill="none" stroke="#696969" stroke-width="1.5" d="M200.8498,-659.0509C200.8498,-659.0509 200.8498,-632.4568 200.8498,-632.4568"/>
<polygon fill="#696969" stroke="#696969" stroke-width="1.5" points="200.8498,-622.4568 205.3499,-632.4568 201.0999,-627.4568 201.0999,-632.4568 200.8499,-632.4568 200.5999,-632.4569 200.5999,-627.4569 196.3499,-632.4569 200.8498,-622.4568 200.8498,-622.4568"/>
</g>
<!-- genfastq -->
<g id="node4" class="node">
<title>genfastq</title>
<polygon fill="#add8e6" stroke="#000000" stroke-width="2" points="306.854,-543.6019 94.8456,-543.6019 94.8456,-502.3981 306.854,-502.3981 306.854,-543.6019"/>
<text text-anchor="middle" x="200.8498" y="-527.2" font-family="Helvetica,sans-Serif" font-size="14.00" fill="#000000">Demultiplex FASTQs (Optional)</text>
<text text-anchor="middle" x="200.8498" y="-510.4" font-family="Helvetica,sans-Serif" font-size="14.00" fill="#000000">(run_genfastq.sh)</text>
</g>
<!-- preflight&#45;&gt;genfastq -->
<g id="edge3" class="edge">
<title>preflight&#45;&gt;genfastq</title>
<path fill="none" stroke="#696969" stroke-width="1.5" d="M200.8498,-580.9488C200.8498,-580.9488 200.8498,-553.7862 200.8498,-553.7862"/>
<polygon fill="#696969" stroke="#696969" stroke-width="1.5" points="200.8498,-543.7862 205.3499,-553.7862 201.0999,-548.7862 201.0999,-553.7862 200.8499,-553.7862 200.5999,-553.7862 200.5999,-548.7862 196.3499,-553.7862 200.8498,-543.7862 200.8498,-543.7862"/>
</g>
<!-- rna_check -->
<g id="node5" class="node">
<title>rna_check</title>
<polygon fill="#fafad2" stroke="#000000" stroke-width="2" points="165.8498,-295 .1501,-277 165.8498,-259 331.5495,-277 165.8498,-295"/>
<text text-anchor="middle" x="165.8498" y="-272.8" font-family="Helvetica,sans-Serif" font-size="14.00" fill="#000000">RNA FASTQs available?</text>
</g>
<!-- genfastq&#45;&gt;rna_check -->
<g id="edge4" class="edge">
<title>genfastq&#45;&gt;rna_check</title>
<path fill="none" stroke="#696969" stroke-width="1.5" d="M166.6279,-502.0262C166.6279,-502.0262 166.6279,-305.2139 166.6279,-305.2139"/>
<polygon fill="#696969" stroke="#696969" stroke-width="1.5" points="166.6279,-295.2139 171.128,-305.2138 166.8779,-300.2139 166.878,-305.2139 166.628,-305.2139 166.378,-305.2139 166.3779,-300.2139 162.128,-305.2139 166.6279,-295.2139 166.6279,-295.2139"/>
</g>
<!-- atac_check -->
<g id="node6" class="node">
<title>atac_check</title>
<polygon fill="#fafad2" stroke="#000000" stroke-width="2" points="411.8498,-465.2 238.4663,-447.2 411.8498,-429.2 585.2333,-447.2 411.8498,-465.2"/>
<text text-anchor="middle" x="411.8498" y="-443" font-family="Helvetica,sans-Serif" font-size="14.00" fill="#000000">ATAC FASTQs available?</text>
</g>
<!-- genfastq&#45;&gt;atac_check -->
<g id="edge5" class="edge">
<title>genfastq&#45;&gt;atac_check</title>
<path fill="none" stroke="#696969" stroke-width="1.5" d="M272.63,-502.2873C272.63,-502.2873 272.63,-460.8816 272.63,-460.8816"/>
<polygon fill="#696969" stroke="#696969" stroke-width="1.5" points="272.63,-450.8816 277.1301,-460.8816 272.88,-455.8816 272.8801,-460.8816 272.6301,-460.8816 272.3801,-460.8816 272.38,-455.8816 268.1301,-460.8817 272.63,-450.8816 272.63,-450.8816"/>
</g>
<!-- run_rna -->
<g id="node7" class="node">
<title>run_rna</title>
<polygon fill="#add8e6" stroke="#000000" stroke-width="2" points="258.246,-203.2019 35.4536,-203.2019 35.4536,-161.9981 258.246,-161.9981 258.246,-203.2019"/>
<text text-anchor="middle" x="146.8498" y="-186.8" font-family="Helvetica,sans-Serif" font-size="14.00" fill="#000000">Run Cell Ranger RNA Multi</text>
<text text-anchor="middle" x="146.8498" y="-170" font-family="Helvetica,sans-Serif" font-size="14.00" fill="#000000">(run_cellranger_RNA.FB.VDJ.sh)</text>
</g>
<!-- rna_check&#45;&gt;run_rna -->
<g id="edge6" class="edge">
<title>rna_check&#45;&gt;run_rna</title>
<path fill="none" stroke="#696969" stroke-width="1.5" d="M146.8498,-260.9863C146.8498,-260.9863 146.8498,-213.3256 146.8498,-213.3256"/>
<polygon fill="#696969" stroke="#696969" stroke-width="1.5" points="146.8498,-203.3256 151.3499,-213.3256 147.0999,-208.3256 147.0999,-213.3256 146.8499,-213.3256 146.5999,-213.3256 146.5999,-208.3256 142.3499,-213.3256 146.8498,-203.3256 146.8498,-203.3256"/>
<text text-anchor="middle" x="167.7327" y="-225.6" font-family="Times,serif" font-size="14.00" fill="#000000">Yes</text>
</g>
<!-- end_run -->
<g id="node13" class="node">
<title>end_run</title>
<polygon fill="#ffb6c1" stroke="#000000" stroke-width="2" points="377.6025,-36 264.0971,-36 264.0971,0 377.6025,0 377.6025,-36"/>
<text text-anchor="middle" x="320.8498" y="-13.8" font-family="Helvetica,sans-Serif" font-size="14.00" fill="#000000">End Single Run</text>
</g>
<!-- rna_check&#45;&gt;end_run -->
<g id="edge9" class="edge">
<title>rna_check&#45;&gt;end_run</title>
<path fill="none" stroke="#696969" stroke-width="1.5" stroke-dasharray="5,2" d="M297.3372,-272.9317C297.3372,-272.9317 297.3372,-46.3446 297.3372,-46.3446"/>
<polygon fill="#696969" stroke="#696969" stroke-width="1.5" points="297.3372,-36.3446 301.8373,-46.3446 297.5873,-41.3446 297.5873,-46.3446 297.3373,-46.3446 297.0873,-46.3446 297.0873,-41.3446 292.8373,-46.3447 297.3372,-36.3446 297.3372,-36.3446"/>
<text text-anchor="middle" x="294.4031" y="-131.2" font-family="Times,serif" font-size="14.00" fill="#000000">No</text>
</g>
<!-- run_asap2kite -->
<g id="node8" class="node">
<title>run_asap2kite</title>
<polygon fill="#add8e6" stroke="#000000" stroke-width="2" points="515.7231,-376.2019 307.9765,-376.2019 307.9765,-334.9981 515.7231,-334.9981 515.7231,-376.2019"/>
<text text-anchor="middle" x="411.8498" y="-359.8" font-family="Helvetica,sans-Serif" font-size="14.00" fill="#000000">Convert ASAP to Kite FASTQs</text>
<text text-anchor="middle" x="411.8498" y="-343" font-family="Helvetica,sans-Serif" font-size="14.00" fill="#000000">(run_asap_to_kite.sh)</text>
</g>
<!-- atac_check&#45;&gt;run_asap2kite -->
<g id="edge10" class="edge">
<title>atac_check&#45;&gt;run_asap2kite</title>
<path fill="none" stroke="#696969" stroke-width="1.5" d="M411.8498,-429.1028C411.8498,-429.1028 411.8498,-386.2175 411.8498,-386.2175"/>
<polygon fill="#696969" stroke="#696969" stroke-width="1.5" points="411.8498,-376.2175 416.3499,-386.2174 412.0999,-381.2175 412.0999,-386.2175 411.8499,-386.2175 411.5999,-386.2175 411.5999,-381.2175 407.3499,-386.2175 411.8498,-376.2175 411.8498,-376.2175"/>
<text text-anchor="middle" x="422.7327" y="-398.6" font-family="Times,serif" font-size="14.00" fill="#000000">Yes</text>
</g>
<!-- atac_check&#45;&gt;end_run -->
<g id="edge15" class="edge">
<title>atac_check&#45;&gt;end_run</title>
<path fill="none" stroke="#696969" stroke-width="1.5" stroke-dasharray="5,2" d="M550.5486,-443.4895C550.5486,-401.5399 550.5486,-18 550.5486,-18 550.5486,-18 387.6293,-18 387.6293,-18"/>
<polygon fill="#696969" stroke="#696969" stroke-width="1.5" points="377.6293,-18 387.6293,-13.5001 382.6293,-17.75 387.6293,-17.7501 387.6293,-18.0001 387.6293,-18.2501 382.6293,-18.25 387.6292,-22.5001 377.6293,-18 377.6293,-18"/>
<text text-anchor="middle" x="552.4031" y="-225.6" font-family="Times,serif" font-size="14.00" fill="#000000">No</text>
</g>
<!-- copy_rna_reports -->
<g id="node11" class="node">
<title>copy_rna_reports</title>
<polygon fill="#add8e6" stroke="#000000" stroke-width="2" points="246.3582,-109 111.3414,-109 111.3414,-73 246.3582,-73 246.3582,-109"/>
<text text-anchor="middle" x="178.8498" y="-86.8" font-family="Helvetica,sans-Serif" font-size="14.00" fill="#000000">Copy RNA Reports</text>
</g>
<!-- run_rna&#45;&gt;copy_rna_reports -->
<g id="edge7" class="edge">
<title>run_rna&#45;&gt;copy_rna_reports</title>
<path fill="none" stroke="#696969" stroke-width="1.5" d="M178.8498,-161.8145C178.8498,-161.8145 178.8498,-119.2239 178.8498,-119.2239"/>
<polygon fill="#696969" stroke="#696969" stroke-width="1.5" points="178.8498,-109.2239 183.3499,-119.2238 179.0999,-114.2239 179.0999,-119.2239 178.8499,-119.2239 178.5999,-119.2239 178.5999,-114.2239 174.3499,-119.2239 178.8498,-109.2239 178.8498,-109.2239"/>
</g>
<!-- run_kite -->
<g id="node9" class="node">
<title>run_kite</title>
<polygon fill="#add8e6" stroke="#000000" stroke-width="2" points="480.4901,-297.6019 349.2095,-297.6019 349.2095,-256.3981 480.4901,-256.3981 480.4901,-297.6019"/>
<text text-anchor="middle" x="414.8498" y="-281.2" font-family="Helvetica,sans-Serif" font-size="14.00" fill="#000000">Run Kite for ASAP</text>
<text text-anchor="middle" x="414.8498" y="-264.4" font-family="Helvetica,sans-Serif" font-size="14.00" fill="#000000">(run_kite.sh)</text>
</g>
<!-- run_asap2kite&#45;&gt;run_kite -->
<g id="edge11" class="edge">
<title>run_asap2kite&#45;&gt;run_kite</title>
<path fill="none" stroke="#696969" stroke-width="1.5" d="M414.8498,-334.9488C414.8498,-334.9488 414.8498,-307.7862 414.8498,-307.7862"/>
<polygon fill="#696969" stroke="#696969" stroke-width="1.5" points="414.8498,-297.7862 419.3499,-307.7862 415.0999,-302.7862 415.0999,-307.7862 414.8499,-307.7862 414.5999,-307.7862 414.5999,-302.7862 410.3499,-307.7862 414.8498,-297.7862 414.8498,-297.7862"/>
</g>
<!-- run_atac -->
<g id="node10" class="node">
<title>run_atac</title>
<polygon fill="#add8e6" stroke="#000000" stroke-width="2" points="515.7614,-203.2019 313.9382,-203.2019 313.9382,-161.9981 515.7614,-161.9981 515.7614,-203.2019"/>
<text text-anchor="middle" x="414.8498" y="-186.8" font-family="Helvetica,sans-Serif" font-size="14.00" fill="#000000">Run Cell Ranger ATAC Count</text>
<text text-anchor="middle" x="414.8498" y="-170" font-family="Helvetica,sans-Serif" font-size="14.00" fill="#000000">(run_cellranger_ATAC.sh)</text>
</g>
<!-- run_kite&#45;&gt;run_atac -->
<g id="edge12" class="edge">
<title>run_kite&#45;&gt;run_atac</title>
<path fill="none" stroke="#696969" stroke-width="1.5" d="M414.8498,-256.0496C414.8498,-256.0496 414.8498,-213.4919 414.8498,-213.4919"/>
<polygon fill="#696969" stroke="#696969" stroke-width="1.5" points="414.8498,-203.4919 419.3499,-213.4918 415.0999,-208.4919 415.0999,-213.4919 414.8499,-213.4919 414.5999,-213.4919 414.5999,-208.4919 410.3499,-213.4919 414.8498,-203.4919 414.8498,-203.4919"/>
</g>
<!-- copy_atac_reports -->
<g id="node12" class="node">
<title>copy_atac_reports</title>
<polygon fill="#add8e6" stroke="#000000" stroke-width="2" points="464.141,-109 321.5587,-109 321.5587,-73 464.141,-73 464.141,-109"/>
<text text-anchor="middle" x="392.8498" y="-86.8" font-family="Helvetica,sans-Serif" font-size="14.00" fill="#000000">Copy ATAC Reports</text>
</g>
<!-- run_atac&#45;&gt;copy_atac_reports -->
<g id="edge13" class="edge">
<title>run_atac&#45;&gt;copy_atac_reports</title>
<path fill="none" stroke="#696969" stroke-width="1.5" d="M392.8498,-161.8145C392.8498,-161.8145 392.8498,-119.2239 392.8498,-119.2239"/>
<polygon fill="#696969" stroke="#696969" stroke-width="1.5" points="392.8498,-109.2239 397.3499,-119.2238 393.0999,-114.2239 393.0999,-119.2239 392.8499,-119.2239 392.5999,-119.2239 392.5999,-114.2239 388.3499,-119.2239 392.8498,-109.2239 392.8498,-109.2239"/>
</g>
<!-- copy_rna_reports&#45;&gt;end_run -->
<g id="edge8" class="edge">
<title>copy_rna_reports&#45;&gt;end_run</title>
<path fill="none" stroke="#696969" stroke-width="1.5" stroke-dasharray="5,2" d="M246.5554,-91C265.3822,-91 280.7804,-91 280.7804,-91 280.7804,-91 280.7804,-46.0449 280.7804,-46.0449"/>
<polygon fill="#696969" stroke="#696969" stroke-width="1.5" points="280.7804,-36.0449 285.2805,-46.0449 281.0305,-41.0449 281.0305,-46.0449 280.7805,-46.0449 280.5305,-46.045 280.5305,-41.045 276.2805,-46.045 280.7804,-36.0449 280.7804,-36.0449"/>
</g>
<!-- copy_atac_reports&#45;&gt;end_run -->
<g id="edge14" class="edge">
<title>copy_atac_reports&#45;&gt;end_run</title>
<path fill="none" stroke="#696969" stroke-width="1.5" stroke-dasharray="5,2" d="M349.4652,-72.9551C349.4652,-72.9551 349.4652,-46.0904 349.4652,-46.0904"/>
<polygon fill="#696969" stroke="#696969" stroke-width="1.5" points="349.4652,-36.0904 353.9653,-46.0903 349.7152,-41.0904 349.7153,-46.0904 349.4653,-46.0904 349.2153,-46.0904 349.2152,-41.0904 344.9653,-46.0904 349.4652,-36.0904 349.4652,-36.0904"/>
</g>
</g>
</svg>

